<?xml version="1.0"?>
<svg width="500" height="500" xmlns="http://www.w3.org/2000/svg" xmlns:svg="http://www.w3.org/2000/svg">

 <g class="layer">
  <title>Layer 1</title>
  <path d="m406.96,385.92c-5.85,-15.58 -13.18,-35.12 -27.63,-35.12c-14.33,0 -21.67,19.39 -27.63,35.12c-5.5,14.51 -8.6,22.14 -15.48,22.14s-9.97,-7.64 -15.48,-22.14c-5.85,-15.58 -13.18,-35.12 -27.63,-35.12c-14.44,0 -21.67,19.39 -27.63,35.12c-5.5,14.51 -8.6,22.14 -15.48,22.14s-9.97,-7.64 -15.48,-22.14c-5.85,-15.58 -13.18,-35.12 -27.63,-35.12c-14.44,0 -21.67,19.39 -27.63,35.12c-5.5,14.51 -8.6,22.14 -15.48,22.14s-9.97,-7.64 -15.48,-22.14c-5.85,-15.58 -13.18,-35.12 -27.63,-35.12c-14.33,0 -21.67,18.48 -27.51,34.05c0,0 -4.47,13.29 -6.42,19.55c-1.95,6.26 -9.51,30.08 -2.64,41.54c3.9,6.41 9.51,-2.75 12.72,-9.47c2.41,-5.19 8.14,-20.16 8.14,-20.16c5.85,-13.9 8.94,-21.38 15.7,-21.38c6.88,0 9.97,7.64 15.48,22.14c5.85,15.58 13.18,35.12 27.63,35.12c14.33,0 21.67,-19.39 27.63,-35.12c5.5,-14.51 8.6,-22.14 15.48,-22.14s9.97,7.64 15.48,22.14c5.85,15.58 13.18,35.12 27.63,35.12c14.33,0 21.67,-19.39 27.63,-35.12c5.5,-14.51 8.6,-22.14 15.48,-22.14s9.97,7.64 15.48,22.14c5.85,15.58 13.18,35.12 27.63,35.12c14.44,0 21.67,-19.39 27.63,-35.12c5.5,-14.51 8.6,-22.14 15.48,-22.14s9.97,7.64 15.48,22.14c0,0 2.52,6.57 6.19,15.12c1.6,3.51 7.57,16.95 12.84,16.49c4.7,-0.46 6.42,-20.31 1.15,-37.72c-3.55,-11.61 -8.02,-25.04 -8.02,-25.04z" fill="#cb2029" id="svg_1" transform="matrix(1 0 0 1 0 0)"/>
  <path d="m387.3,129.62l0,139.5c-0.21,3.42 -2.09,6.55 -5.13,8.43l-4.79,2.72l-36.52,20.11l-24.63,13.68l-5.09,2.73l0,-150.84l-137.02,-75.49l65.05,-35.75l6.03,-3.27c3.2,-1.55 7,-1.55 10.2,0l90.21,49.67l41.63,22.93l0,5.57l0.05,0zm-106.65,53.06l-28.07,-15.47l-65.77,-36.2c-3.2,-1.55 -6.97,-1.55 -10.2,0l-58.3,32.08l-5.08,2.86l98.96,54.42l0,108.95l58.21,-32.08l5.16,-2.73c3,-1.88 4.92,-5.01 5.09,-8.42l0,-103.42zm-167.42,92.18l68.46,37.69l0,-75.44l-68.46,37.74z" fill="rgb(92, 229, 0)" id="svg_2" stroke-width="0.07"/>
 </g>
</svg>